<svg id="Group_144" data-name="Group 144" xmlns="http://www.w3.org/2000/svg" xmlns:xlink="http://www.w3.org/1999/xlink" width="120.061" height="118.917" viewBox="0 0 120.061 118.917">
  <defs>
    <clipPath id="clip-path">
      <rect id="Rectangle_245" data-name="Rectangle 245" width="120.061" height="118.917" fill="#0b64c1"/>
    </clipPath>
  </defs>
  <g id="Group_143" data-name="Group 143" transform="translate(0 0)" clip-path="url(#clip-path)">
    <path id="Path_407" data-name="Path 407" d="M87.943,43.972A43.971,43.971,0,1,1,43.971,0,43.972,43.972,0,0,1,87.943,43.972" transform="translate(0 0)" fill="#fa921f"/>
    <rect id="Rectangle_242" data-name="Rectangle 242" width="9.698" height="112.151" transform="translate(33.332 39.614) rotate(-45)" fill="#0b64c1"/>
    <path id="Path_408" data-name="Path 408" d="M77.594,46.962A30.632,30.632,0,1,1,46.962,16.33,30.632,30.632,0,0,1,77.594,46.962" transform="translate(-2.99 -2.99)" fill="#fff"/>
    <rect id="Rectangle_243" data-name="Rectangle 243" width="26.474" height="17.478" transform="translate(38.294 99.632)" fill="#ffcc34"/>
    <rect id="Rectangle_244" data-name="Rectangle 244" width="26.474" height="17.478" transform="translate(3.76 99.632)" fill="#0b64c1"/>
    <path id="Path_409" data-name="Path 409" d="M141.045,16.524A13.22,13.22,0,1,1,127.826,3.3a13.22,13.22,0,0,1,13.22,13.221" transform="translate(-20.985 -0.605)" fill="#ffcc34"/>
    <path id="Path_410" data-name="Path 410" d="M141.045,56.156a13.22,13.22,0,1,1-13.22-13.22,13.22,13.22,0,0,1,13.22,13.22" transform="translate(-20.985 -7.862)" fill="#fa921f"/>
  </g>
</svg>
