<svg id="Group_151" data-name="Group 151" xmlns="http://www.w3.org/2000/svg" xmlns:xlink="http://www.w3.org/1999/xlink" width="137.769" height="128.919" viewBox="0 0 137.769 128.919">
  <defs>
    <clipPath id="clip-path">
      <rect id="Rectangle_255" data-name="Rectangle 255" width="137.769" height="128.919" fill="none"/>
    </clipPath>
  </defs>
  <g id="Group_150" data-name="Group 150" transform="translate(0 0)" clip-path="url(#clip-path)">
    <path id="Path_419" data-name="Path 419" d="M63.648,2.239,10.207,94.8a4.478,4.478,0,0,0,3.878,6.717H120.967a4.478,4.478,0,0,0,3.878-6.717L71.4,2.239a4.478,4.478,0,0,0-7.756,0" transform="translate(3.968 0)" fill="#0b64c1"/>
    <path id="Path_420" data-name="Path 420" d="M102.795,61.546l.683-23.284L82.972,49.312Z" transform="translate(34.291 15.813)" fill="#fa921f"/>
    <rect id="Rectangle_250" data-name="Rectangle 250" width="10.736" height="39.675" transform="translate(103.968 27.22) rotate(-28.321)" fill="#fa921f"/>
    <path id="Path_421" data-name="Path 421" d="M27.013,86.384,47.186,74.737V98.031Z" transform="translate(11.164 30.888)" fill="#fa921f"/>
    <rect id="Rectangle_251" data-name="Rectangle 251" width="39.675" height="10.735" transform="translate(58.349 111.904)" fill="#fa921f"/>
    <path id="Path_422" data-name="Path 422" d="M31.787,16.854,30.905,40.13l-19.718-12.4Z" transform="translate(4.623 6.965)" fill="#fa921f"/>
    <rect id="Rectangle_252" data-name="Rectangle 252" width="39.676" height="10.736" transform="matrix(0.532, -0.846, 0.846, 0.532, 0, 71.621)" fill="#fa921f"/>
    <path id="Path_423" data-name="Path 423" d="M56.934,21l-30.482,52.8a4.479,4.479,0,0,0,3.878,6.719H91.3a4.479,4.479,0,0,0,3.878-6.719L64.69,21a4.478,4.478,0,0,0-7.756,0" transform="translate(10.682 7.752)" fill="#ffcb00"/>
    <rect id="Rectangle_253" data-name="Rectangle 253" width="10.58" height="30.496" transform="translate(66.204 38.724)" fill="#0b64c1"/>
    <rect id="Rectangle_254" data-name="Rectangle 254" width="10.58" height="9.301" transform="translate(66.204 73.032)" fill="#0b64c1"/>
  </g>
</svg>
