<svg id="Group_165" data-name="Group 165" xmlns="http://www.w3.org/2000/svg" xmlns:xlink="http://www.w3.org/1999/xlink" width="131.95" height="134.461" viewBox="0 0 131.95 134.461">
  <defs>
    <clipPath id="clip-path">
      <rect id="Rectangle_274" data-name="Rectangle 274" width="131.95" height="134.461" fill="none"/>
    </clipPath>
  </defs>
  <rect id="Rectangle_271" data-name="Rectangle 271" width="7.165" height="47.274" transform="translate(38.168 106.096) rotate(-79.38)" fill="#0b64c1"/>
  <rect id="Rectangle_272" data-name="Rectangle 272" width="47.274" height="7.165" transform="translate(26.952 78.031) rotate(-45)" fill="#ffcb00"/>
  <rect id="Rectangle_273" data-name="Rectangle 273" width="7.165" height="47.274" transform="translate(88.582 43.449) rotate(-22.804)" fill="#fa921f"/>
  <g id="Group_164" data-name="Group 164">
    <g id="Group_163" data-name="Group 163" clip-path="url(#clip-path)">
      <path id="Path_447" data-name="Path 447" d="M115.159,34.423A34.423,34.423,0,1,1,80.736,0a34.423,34.423,0,0,1,34.423,34.423" transform="translate(-3.268)" fill="#0b64c1"/>
      <path id="Path_448" data-name="Path 448" d="M46.114,96.8A23.057,23.057,0,1,1,23.058,73.743,23.057,23.057,0,0,1,46.114,96.8" transform="translate(0 -5.203)" fill="#fa921f"/>
      <path id="Path_449" data-name="Path 449" d="M136.284,123.2A26.6,26.6,0,1,1,120.5,89.052,26.6,26.6,0,0,1,136.284,123.2" transform="translate(-5.976 -6.167)" fill="#ffcb00"/>
      <path id="Path_450" data-name="Path 450" d="M100.422,23.038A22.893,22.893,0,0,1,62.885,49.256" transform="translate(-4.437 -1.625)" fill="#fff"/>
      <path id="Path_451" data-name="Path 451" d="M69.714,31.437a3.423,3.423,0,1,1-4.766-.846,3.423,3.423,0,0,1,4.766.846" transform="translate(-4.479 -2.115)" fill="#fff"/>
      <path id="Path_452" data-name="Path 452" d="M88.583,18.257a3.423,3.423,0,1,1-4.766-.846,3.423,3.423,0,0,1,4.766.846" transform="translate(-5.81 -1.185)" fill="#fff"/>
      <path id="Path_453" data-name="Path 453" d="M127.072,128.152a19.625,19.625,0,0,1-27.809-27.7" transform="translate(-6.6 -7.087)" fill="#fff"/>
      <path id="Path_454" data-name="Path 454" d="M117.043,103.249a2.934,2.934,0,1,1-.008-4.149,2.934,2.934,0,0,1,.008,4.149" transform="translate(-7.904 -6.931)" fill="#fff"/>
      <path id="Path_455" data-name="Path 455" d="M131.022,117.173a2.934,2.934,0,1,1-.008-4.149,2.934,2.934,0,0,1,.008,4.149" transform="translate(-8.89 -7.914)" fill="#fff"/>
      <path id="Path_456" data-name="Path 456" d="M39,98.373A15.32,15.32,0,0,1,8.386,99.5" transform="translate(-0.592 -6.941)" fill="#fff"/>
      <path id="Path_457" data-name="Path 457" d="M19.29,90.987a2.29,2.29,0,1,1-2.373-2.2,2.29,2.29,0,0,1,2.373,2.2" transform="translate(-1.038 -6.264)" fill="#fff"/>
      <path id="Path_458" data-name="Path 458" d="M34.682,90.423a2.29,2.29,0,1,1-2.373-2.2,2.29,2.29,0,0,1,2.373,2.2" transform="translate(-2.124 -6.224)" fill="#fff"/>
    </g>
  </g>
</svg>
