<svg xmlns="http://www.w3.org/2000/svg" width="119.255" height="116.633" viewBox="0 0 119.255 116.633">
  <g id="Group_159" data-name="Group 159" transform="translate(0)">
    <path id="Path_432" data-name="Path 432" d="M59.627,0,0,19V97.631l59.627-19Z" fill="#0b64c1"/>
    <path id="Path_433" data-name="Path 433" d="M80.147,0V78.629l59.627,19V19Z" transform="translate(-20.52)" fill="#0b64c1"/>
    <path id="Path_434" data-name="Path 434" d="M0,104.17l59.627,19V44.543L0,25.541Z" transform="translate(0 -6.539)" fill="#ffcb00"/>
    <path id="Path_435" data-name="Path 435" d="M80.147,44.543v78.629l59.627-19V25.541Z" transform="translate(-20.52 -6.539)" fill="#ff8a00"/>
    <path id="Path_436" data-name="Path 436" d="M30.165,13.488,86.271,33.227l21.377-6.143L51.624,6.936Z" transform="translate(-7.723 -1.776)" fill="#fff"/>
    <path id="Path_437" data-name="Path 437" d="M126.955,34.018l.819,36.612-22.2,6.88V40.161Z" transform="translate(-27.031 -8.709)" fill="#fff"/>
    <path id="Path_438" data-name="Path 438" d="M44.807,117.577v12.04l18.92,6.389v-12.04Z" transform="translate(-11.472 -30.103)" fill="#fff"/>
  </g>
</svg>
