<svg id="Group_146" data-name="Group 146" xmlns="http://www.w3.org/2000/svg" xmlns:xlink="http://www.w3.org/1999/xlink" width="131.887" height="128.919" viewBox="0 0 131.887 128.919">
  <defs>
    <clipPath id="clip-path">
      <rect id="Rectangle_247" data-name="Rectangle 247" width="131.887" height="128.919" fill="none"/>
    </clipPath>
  </defs>
  <g id="Group_145" data-name="Group 145" transform="translate(0 0)" clip-path="url(#clip-path)">
    <path id="Path_411" data-name="Path 411" d="M61.124,15.565A33.067,33.067,0,1,1,15.565,5.019,33.067,33.067,0,0,1,61.124,15.565" transform="translate(0 0)" fill="#ffcb00"/>
    <path id="Path_412" data-name="Path 412" d="M54.19,22.452A23.036,23.036,0,1,1,22.452,15.1,23.036,23.036,0,0,1,54.19,22.452" transform="translate(-1.576 -1.576)" fill="#fff"/>
    <path id="Path_413" data-name="Path 413" d="M118.182,72.739a59.353,59.353,0,0,1,2.262,6.2c2.761,11.118.693,21.157-7.617,29.285-7.6,7.431-16.93,10.251-27.5,8.869-6.9-.9-13.478-3.044-20.059-5.177-8.265-2.679-16.522-5.387-24.789-8.064a9.774,9.774,0,0,1-6.511-11.707,9.634,9.634,0,0,1,11.169-7.2c4.012.792,7.981,1.8,11.968,2.727.385.09.761.229,1.141.346l.193-.218L57.8,86.768,30.071,42.338c-3.111-4.984-2.683-9.167,1.371-13.453a.794.794,0,0,0,.1-.189l2.212-1.38a1.35,1.35,0,0,0,.321-.029c5.112-1.764,9.491-.236,12.342,4.321q4.03,6.44,8.046,12.89l.681,1.092a9.874,9.874,0,0,1,6.924-3.62,10.006,10.006,0,0,1,7.36,2.506c3.409-4.219,9.426-5.5,14.563-1.41.239-.262.477-.529.721-.79A9.771,9.771,0,0,1,98.232,41.6c.4.355.8.725,1.2,1.088q9.378,15.025,18.755,30.051" transform="translate(-3.805 -3.608)" fill="#0b64c1"/>
    <rect id="Rectangle_246" data-name="Rectangle 246" width="50.521" height="18.705" transform="translate(82.936 115.692) rotate(-45)" fill="#fa921f"/>
  </g>
</svg>
